<?xml version="1.0" encoding="iso-8859-1"?>
<!-- Uploaded to: SVG Repo, www.svgrepo.com, Generator: SVG Repo Mixer Tools -->
<svg height="800px" width="800px" version="1.1" id="Layer_1" xmlns="http://www.w3.org/2000/svg" xmlns:xlink="http://www.w3.org/1999/xlink" 
	 viewBox="0 0 295.996 295.996" xml:space="preserve">
<g>
	<path style="fill:#FFCE00;" d="M237.531,51.102c-22.391-13.376-48.766-20.666-76.771-19.645
		c-36.891,1.345-69.918,16.853-94.063,41.096c7.038-3.956,15.153-6.222,23.801-6.222c24.148,0,44.183,17.598,48.001,40.666h18.998
		c3.818-23.068,23.853-40.666,48.001-40.666c22.076,0,40.711,14.707,46.666,34.855l13.322-13.322
		C258.366,74.013,248.864,61.581,237.531,51.102z"/>
	<path style="fill:#FFCE00;" d="M270.996,123.998c0-6.058-0.392-12.024-1.139-17.879l-16.249,16.248
		c-2.829,18.62-16.213,33.771-33.855,39.171c-3.216,2.932-5.352,7.067-5.352,11.458c0,8.601,7.262,15.598,15.262,15.598v16
		c-8,0-16.685-3.782-22.453-9.832c-17.648,11.56-37.926,17.641-59.297,17.641c-21.615,0.001-42.293-6.207-60.066-18.008
		c-5.832,6.266-14.184,10.199-23.184,10.199v-16c9,0,15.738-6.997,15.738-15.598c0-4.166-1.552-8.082-4.497-11.027l-0.391-0.426
		l-0.201-0.3c-17.191-5.636-30.158-20.577-32.938-38.876l-5.5-5.505c-7.732,18.268-11.694,38.47-10.923,59.601
		c0.413,11.304,2.171,22.239,5.088,32.673c6.303,12.01,14.398,22.938,23.934,32.42c21.892,14.189,47.991,22.44,76.023,22.44
		C208.316,263.996,270.996,201.316,270.996,123.998z"/>
	<path style="fill:#FFCE00;" d="M147.998,196.402c18.606,0,36.307-5.41,51.568-15.67c-0.634-2.478-0.975-5.067-0.975-7.736
		c0-3.315,0.531-6.559,1.528-9.634c-21.696-2.386-39.094-19.033-42.624-40.365h-18.998c-3.572,21.589-21.349,38.38-43.409,40.445
		c0.969,3.051,1.48,6.263,1.48,9.554c0,2.493-0.308,4.916-0.869,7.244C111.122,190.821,129.079,196.403,147.998,196.402z"/>
	<path style="fill:#FFB100;" d="M272.324,103.652l-2.467,2.467c0.747,5.854,1.139,11.821,1.139,17.879
		c0,77.318-62.68,139.998-139.998,139.998c-28.032,0-54.131-8.251-76.022-22.44c23.88,23.744,56.766,38.44,93.022,38.44
		c72.784,0,131.998-59.214,131.998-131.998C279.996,132.447,277.285,117.52,272.324,103.652z"/>
	<path style="fill:#FFE454;" d="M36.881,116.862l-13.209-13.209C18.711,117.521,16,132.447,16,147.998
		c0,22.05,5.442,42.849,15.042,61.138c-2.917-10.434-4.674-21.369-5.087-32.673C25.185,155.332,29.149,135.13,36.881,116.862z"/>
	<path style="fill:#FFE454;" d="M160.76,31.457c28.006-1.021,54.381,6.269,76.771,19.645C213.985,29.328,182.521,16,147.998,16
		c-51.14,0-95.579,29.233-117.487,71.866l13.32,13.32c3.622-12.256,11.936-22.491,22.865-28.634
		C90.842,48.31,123.869,32.802,160.76,31.457z"/>
	<path d="M147.998,0C66.392,0,0,66.392,0,147.998s66.392,147.998,147.998,147.998s147.998-66.392,147.998-147.998
		S229.604,0,147.998,0z M147.998,279.996c-36.257,0-69.143-14.696-93.022-38.44c-9.536-9.482-17.631-20.41-23.934-32.42
		C21.442,190.847,16,170.048,16,147.998c0-15.551,2.711-30.478,7.672-44.345l13.209,13.209l5.505,5.505
		c2.78,18.299,15.757,33.24,32.948,38.876l0.222,0.3l0.433,0.426c2.945,2.945,4.414,6.861,4.414,11.027
		c0,8.601-6.738,15.598-15.738,15.598v16c9,0,17.394-3.934,23.226-10.199c17.773,11.801,38.409,18.009,60.025,18.008
		c21.371,0,41.607-6.081,59.255-17.641c5.767,6.05,14.494,9.832,22.494,9.832v-16c-8,0-15.262-6.997-15.262-15.598
		c0-4.391,2.053-8.526,5.269-11.458c17.642-5.399,31.067-20.551,33.896-39.171l16.27-16.248l2.477-2.467
		c4.961,13.867,7.677,28.795,7.677,44.346C279.991,220.782,220.782,279.996,147.998,279.996z M252.163,101.187
		c-5.955-20.148-24.59-34.855-46.666-34.855c-24.148,0-44.183,17.598-48.001,40.666h-18.998
		c-3.818-23.068-23.853-40.666-48.001-40.666c-8.647,0-16.763,2.266-23.801,6.222c-10.93,6.142-19.243,16.378-22.865,28.634
		l-13.32-13.32C52.419,45.233,96.858,16,147.998,16c34.523,0,65.987,13.328,89.533,35.102
		c11.333,10.479,20.835,22.911,27.954,36.763L252.163,101.187z M57.83,114.998c0-18.013,14.654-32.667,32.667-32.667
		s32.667,14.654,32.667,32.667s-14.654,32.667-32.667,32.667S57.83,133.011,57.83,114.998z M95.089,163.442
		c22.061-2.065,39.837-18.856,43.409-40.445h18.998c3.53,21.332,20.928,37.979,42.624,40.365c-0.997,3.074-1.528,6.318-1.528,9.634
		c0,2.669,0.341,5.259,0.975,7.736c-15.262,10.26-32.962,15.67-51.568,15.67c-18.919,0.001-36.876-5.581-52.298-16.162
		c0.562-2.328,0.869-4.751,0.869-7.244C96.569,169.705,96.058,166.493,95.089,163.442z M205.497,147.665
		c-18.013,0-32.667-14.654-32.667-32.667s14.654-32.667,32.667-32.667s32.667,14.654,32.667,32.667S223.51,147.665,205.497,147.665z
		"/>
	<path style="fill:#FFFFFF;" d="M123.164,114.998c0-18.013-14.654-32.667-32.667-32.667S57.83,96.985,57.83,114.998
		s14.654,32.667,32.667,32.667S123.164,133.011,123.164,114.998z M74.497,114.998c0-8.836,7.164-16,16-16s16,7.164,16,16
		s-7.164,16-16,16S74.497,123.834,74.497,114.998z"/>
	<path style="fill:#FFFFFF;" d="M238.164,114.998c0-18.013-14.654-32.667-32.667-32.667s-32.667,14.654-32.667,32.667
		s14.654,32.667,32.667,32.667S238.164,133.011,238.164,114.998z M189.497,114.998c0-8.836,7.164-16,16-16s16,7.164,16,16
		s-7.164,16-16,16S189.497,123.834,189.497,114.998z"/>
	<circle cx="90.497" cy="114.998" r="16"/>
	<circle cx="205.497" cy="114.998" r="16"/>
</g>
</svg>